<svg xmlns="http://www.w3.org/2000/svg" viewBox="0 0 284.05 192.05"><defs><clipPath id="a" transform="translate(-45.97 -91.64)"><path class="a" d="M154 191h119v82H154z"/></clipPath><clipPath id="b" transform="translate(-45.97 -91.64)"><path class="a" transform="rotate(-77.21 187.561 187.553)" d="M63.05 58.17h249v258.75h-249z"/></clipPath><clipPath id="d" transform="translate(-45.97 -91.64)"><path class="a" d="M45 91h286v193H45z"/></clipPath><style>.a{fill:none}.c{clip-path:url(#b)}.d{fill:#7ed957}</style></defs><g class="c" style="clip-path:url(#a)"><g class="c"><path class="d" d="M215.69 112.75a75.61 75.61 0 0 1-90.39 56.93c-1.77-.4-3.48-.94-5.2-1.46q-5.85 3-11.66 5.81a86.47 86.47 0 0 0 14.78 4.87 85 85 0 0 0 101.69-64.06 86.41 86.41 0 0 0 2-15.43c-3.45 2.73-6.9 5.39-10.27 8-.29 1.74-.54 3.53-.95 5.34z"/></g></g><g class="c" style="clip-path:url(#d)"><g class="c"><path class="d" d="M281.84 7.95c-2.26-3.58-6-6-11.19-7.16-15.86-3.59-47.19 5.23-84.55 22.64a84.87 84.87 0 0 0-128.63 80.84C17.96 136.53-7.97 167.99 2.2 184.09c2.26 3.57 6 6 11.19 7.16 12.57 2.85 34.87-2.07 62.17-12.91 26.41-10.46 57.48-26.46 89.11-46.37 29.41-18.53 57.53-39.36 79.11-59 29.4-26.8 46.63-51.41 38.06-65.02zm-43.18 56.72c-19.07 17.68-45.46 38.17-79 59.31-33.22 20.93-63.22 36-87.6 45.68-26.67 10.58-46.65 14.63-56.55 12.38-2.65-.6-4.43-1.6-5.31-3-5-7.95 12.07-32.74 49.12-63.94a85.12 85.12 0 0 0 22.09 40.35q4.5-2 9.25-4.2a75.48 75.48 0 1 1 123.37-77.71q4.05-3.33 7.78-6.53a85.25 85.25 0 0 0-26.89-37.36C230.14 13.72 256.61 7.29 268.54 10c2.64.6 4.42 1.61 5.29 3 4.35 6.85-7.8 26.36-35.17 51.67z"/></g></g></svg>