{
    "asset" : {
        "generator" : "Khronos glTF Blender I/O v1.6.16",
        "version" : "2.0"
    },
    "scene" : 0,
    "scenes" : [
        {
            "name" : "Scene",
            "nodes" : [
                0
            ]
        }
    ],
    "nodes" : [
        {
            "mesh" : 0,
            "name" : "xterra_xterra.001",
            "rotation" : [
                0.7071068286895752,
                0,
                0,
                0.7071067094802856
            ],
            "scale" : [
                0.00657257903367281,
                0.00657257903367281,
                0.00657257903367281
            ],
            "translation" : [
                0.22928085923194885,
                0.02359655499458313,
                -0.06415224075317383
            ]
        }
    ],
    "materials" : [
        {
            "doubleSided" : true,
            "name" : "xterra2__sub_.005",
            "pbrMetallicRoughness" : {
                "baseColorTexture" : {
                    "index" : 0
                },
                "metallicFactor" : 0,
                "roughnessFactor" : 0.8472474813461304
            }
        },
        {
            "doubleSided" : true,
            "name" : "xterra1__sub_.006",
            "pbrMetallicRoughness" : {
                "baseColorTexture" : {
                    "index" : 1
                },
                "metallicFactor" : 0,
                "roughnessFactor" : 0.8472474813461304
            }
        },
        {
            "doubleSided" : true,
            "name" : "xtgrey__sub_.005",
            "pbrMetallicRoughness" : {
                "baseColorTexture" : {
                    "index" : 2
                },
                "metallicFactor" : 0,
                "roughnessFactor" : 0.8945907354354858
            }
        },
        {
            "doubleSided" : true,
            "name" : "xtmirgls.005",
            "pbrMetallicRoughness" : {
                "baseColorTexture" : {
                    "index" : 3
                },
                "metallicFactor" : 0,
                "roughnessFactor" : 0.8666666746139526
            }
        },
        {
            "doubleSided" : true,
            "name" : "xtgrey2.005",
            "pbrMetallicRoughness" : {
                "baseColorTexture" : {
                    "index" : 4
                },
                "metallicFactor" : 0,
                "roughnessFactor" : 0.8945907354354858
            }
        },
        {
            "doubleSided" : true,
            "name" : "xtrakbot.005",
            "pbrMetallicRoughness" : {
                "baseColorTexture" : {
                    "index" : 5
                },
                "metallicFactor" : 0,
                "roughnessFactor" : 0.8945907354354858
            }
        }
    ],
    "meshes" : [
        {
            "name" : "xterra_xterra.002",
            "primitives" : [
                {
                    "attributes" : {
                        "POSITION" : 0,
                        "NORMAL" : 1,
                        "TEXCOORD_0" : 2
                    },
                    "indices" : 3,
                    "material" : 0
                },
                {
                    "attributes" : {
                        "POSITION" : 4,
                        "NORMAL" : 5,
                        "TEXCOORD_0" : 6
                    },
                    "indices" : 7,
                    "material" : 1
                },
                {
                    "attributes" : {
                        "POSITION" : 8,
                        "NORMAL" : 9,
                        "TEXCOORD_0" : 10
                    },
                    "indices" : 11,
                    "material" : 2
                },
                {
                    "attributes" : {
                        "POSITION" : 12,
                        "NORMAL" : 13,
                        "TEXCOORD_0" : 14
                    },
                    "indices" : 15,
                    "material" : 3
                },
                {
                    "attributes" : {
                        "POSITION" : 16,
                        "NORMAL" : 17,
                        "TEXCOORD_0" : 18
                    },
                    "indices" : 19,
                    "material" : 4
                },
                {
                    "attributes" : {
                        "POSITION" : 20,
                        "NORMAL" : 21,
                        "TEXCOORD_0" : 22
                    },
                    "indices" : 23,
                    "material" : 5
                }
            ]
        }
    ],
    "textures" : [
        {
            "sampler" : 0,
            "source" : 0
        },
        {
            "sampler" : 0,
            "source" : 1
        },
        {
            "sampler" : 0,
            "source" : 2
        },
        {
            "sampler" : 0,
            "source" : 3
        },
        {
            "sampler" : 0,
            "source" : 4
        },
        {
            "sampler" : 0,
            "source" : 5
        }
    ],
    "images" : [
        {
            "bufferView" : 4,
            "mimeType" : "image/png",
            "name" : "xterra2.tga"
        },
        {
            "bufferView" : 9,
            "mimeType" : "image/png",
            "name" : "xterra1.tga"
        },
        {
            "bufferView" : 14,
            "mimeType" : "image/png",
            "name" : "xtgrey.tga"
        },
        {
            "bufferView" : 19,
            "mimeType" : "image/png",
            "name" : "xtmirgls.tga"
        },
        {
            "bufferView" : 24,
            "mimeType" : "image/png",
            "name" : "xtgrey2.tga"
        },
        {
            "bufferView" : 29,
            "mimeType" : "image/png",
            "name" : "xtrkbot.tga"
        }
    ],
    "accessors" : [
        {
            "bufferView" : 0,
            "componentType" : 5126,
            "count" : 1110,
            "max" : [
                37.610477447509766,
                96.74063873291016,
                28.923648834228516
            ],
            "min" : [
                -37.55045700073242,
                -80.40819549560547,
                -35.61852264404297
            ],
            "type" : "VEC3"
        },
        {
            "bufferView" : 1,
            "componentType" : 5126,
            "count" : 1110,
            "type" : "VEC3"
        },
        {
            "bufferView" : 2,
            "componentType" : 5126,
            "count" : 1110,
            "type" : "VEC2"
        },
        {
            "bufferView" : 3,
            "componentType" : 5123,
            "count" : 3522,
            "type" : "SCALAR"
        },
        {
            "bufferView" : 5,
            "componentType" : 5126,
            "count" : 234,
            "max" : [
                35.126224517822266,
                100.3647232055664,
                23.31214141845703
            ],
            "min" : [
                -35.09843826293945,
                -81.4448013305664,
                -27.902587890625
            ],
            "type" : "VEC3"
        },
        {
            "bufferView" : 6,
            "componentType" : 5126,
            "count" : 234,
            "type" : "VEC3"
        },
        {
            "bufferView" : 7,
            "componentType" : 5126,
            "count" : 234,
            "type" : "VEC2"
        },
        {
            "bufferView" : 8,
            "componentType" : 5123,
            "count" : 519,
            "type" : "SCALAR"
        },
        {
            "bufferView" : 10,
            "componentType" : 5126,
            "count" : 1593,
            "max" : [
                44.39481735229492,
                85.3769760131836,
                24.227699279785156
            ],
            "min" : [
                -44.43899154663086,
                -65.19120025634766,
                -35.31052780151367
            ],
            "type" : "VEC3"
        },
        {
            "bufferView" : 11,
            "componentType" : 5126,
            "count" : 1593,
            "type" : "VEC3"
        },
        {
            "bufferView" : 12,
            "componentType" : 5126,
            "count" : 1593,
            "type" : "VEC2"
        },
        {
            "bufferView" : 13,
            "componentType" : 5123,
            "count" : 3450,
            "type" : "SCALAR"
        },
        {
            "bufferView" : 15,
            "componentType" : 5126,
            "count" : 90,
            "max" : [
                44.0943603515625,
                38.297889709472656,
                -6.407164573669434
            ],
            "min" : [
                -44.138526916503906,
                35.772029876708984,
                -12.110553741455078
            ],
            "type" : "VEC3"
        },
        {
            "bufferView" : 16,
            "componentType" : 5126,
            "count" : 90,
            "type" : "VEC3"
        },
        {
            "bufferView" : 17,
            "componentType" : 5126,
            "count" : 90,
            "type" : "VEC2"
        },
        {
            "bufferView" : 18,
            "componentType" : 5123,
            "count" : 90,
            "type" : "SCALAR"
        },
        {
            "bufferView" : 20,
            "componentType" : 5126,
            "count" : 66,
            "max" : [
                20.59123992919922,
                23.565950393676758,
                -27.011621475219727
            ],
            "min" : [
                -20.39400863647461,
                -14.870070457458496,
                -34.69682312011719
            ],
            "type" : "VEC3"
        },
        {
            "bufferView" : 21,
            "componentType" : 5126,
            "count" : 66,
            "type" : "VEC3"
        },
        {
            "bufferView" : 22,
            "componentType" : 5126,
            "count" : 66,
            "type" : "VEC2"
        },
        {
            "bufferView" : 23,
            "componentType" : 5123,
            "count" : 90,
            "type" : "SCALAR"
        },
        {
            "bufferView" : 25,
            "componentType" : 5126,
            "count" : 9,
            "max" : [
                19.803789138793945,
                9.635854721069336,
                -28.517179489135742
            ],
            "min" : [
                -19.589956283569336,
                -14.388001441955566,
                -31.087644577026367
            ],
            "type" : "VEC3"
        },
        {
            "bufferView" : 26,
            "componentType" : 5126,
            "count" : 9,
            "type" : "VEC3"
        },
        {
            "bufferView" : 27,
            "componentType" : 5126,
            "count" : 9,
            "type" : "VEC2"
        },
        {
            "bufferView" : 28,
            "componentType" : 5123,
            "count" : 21,
            "type" : "SCALAR"
        }
    ],
    "bufferViews" : [
        {
            "buffer" : 0,
            "byteLength" : 13320,
            "byteOffset" : 0
        },
        {
            "buffer" : 0,
            "byteLength" : 13320,
            "byteOffset" : 13320
        },
        {
            "buffer" : 0,
            "byteLength" : 8880,
            "byteOffset" : 26640
        },
        {
            "buffer" : 0,
            "byteLength" : 7044,
            "byteOffset" : 35520
        },
        {
            "buffer" : 0,
            "byteLength" : 460516,
            "byteOffset" : 42564
        },
        {
            "buffer" : 0,
            "byteLength" : 2808,
            "byteOffset" : 503080
        },
        {
            "buffer" : 0,
            "byteLength" : 2808,
            "byteOffset" : 505888
        },
        {
            "buffer" : 0,
            "byteLength" : 1872,
            "byteOffset" : 508696
        },
        {
            "buffer" : 0,
            "byteLength" : 1038,
            "byteOffset" : 510568
        },
        {
            "buffer" : 0,
            "byteLength" : 1192214,
            "byteOffset" : 511608
        },
        {
            "buffer" : 0,
            "byteLength" : 19116,
            "byteOffset" : 1703824
        },
        {
            "buffer" : 0,
            "byteLength" : 19116,
            "byteOffset" : 1722940
        },
        {
            "buffer" : 0,
            "byteLength" : 12744,
            "byteOffset" : 1742056
        },
        {
            "buffer" : 0,
            "byteLength" : 6900,
            "byteOffset" : 1754800
        },
        {
            "buffer" : 0,
            "byteLength" : 1342,
            "byteOffset" : 1761700
        },
        {
            "buffer" : 0,
            "byteLength" : 1080,
            "byteOffset" : 1763044
        },
        {
            "buffer" : 0,
            "byteLength" : 1080,
            "byteOffset" : 1764124
        },
        {
            "buffer" : 0,
            "byteLength" : 720,
            "byteOffset" : 1765204
        },
        {
            "buffer" : 0,
            "byteLength" : 180,
            "byteOffset" : 1765924
        },
        {
            "buffer" : 0,
            "byteLength" : 24347,
            "byteOffset" : 1766104
        },
        {
            "buffer" : 0,
            "byteLength" : 792,
            "byteOffset" : 1790452
        },
        {
            "buffer" : 0,
            "byteLength" : 792,
            "byteOffset" : 1791244
        },
        {
            "buffer" : 0,
            "byteLength" : 528,
            "byteOffset" : 1792036
        },
        {
            "buffer" : 0,
            "byteLength" : 180,
            "byteOffset" : 1792564
        },
        {
            "buffer" : 0,
            "byteLength" : 6773,
            "byteOffset" : 1792744
        },
        {
            "buffer" : 0,
            "byteLength" : 108,
            "byteOffset" : 1799520
        },
        {
            "buffer" : 0,
            "byteLength" : 108,
            "byteOffset" : 1799628
        },
        {
            "buffer" : 0,
            "byteLength" : 72,
            "byteOffset" : 1799736
        },
        {
            "buffer" : 0,
            "byteLength" : 42,
            "byteOffset" : 1799808
        },
        {
            "buffer" : 0,
            "byteLength" : 263833,
            "byteOffset" : 1799852
        }
    ],
    "samplers" : [
        {
            "magFilter" : 9729,
            "minFilter" : 9987
        }
    ],
    "buffers" : [
        {
            "byteLength" : 2063688,
            "uri" : "data:application/octet-stream;base64,"
        }
    ]
}
